<?xml version="1.0" encoding="utf-8"?>
<!-- Generator: Adobe Illustrator 24.1.2, SVG Export Plug-In . SVG Version: 6.00 Build 0)  -->
<svg version="1.1" id="레이어_1" xmlns="http://www.w3.org/2000/svg" xmlns:xlink="http://www.w3.org/1999/xlink" x="0px"
	 y="0px" viewBox="0 0 448 512" style="enable-background:new 0 0 448 512;" xml:space="preserve">
<style type="text/css">
	.st0{fill:#FFCCCC;}
	.st1{fill:#FFFFFF;}
</style>
<path class="st0" d="M330.2,479.5H116.8C52,479.5-0.5,427-0.5,362.2V148.8C-0.5,84,52,31.5,116.8,31.5h213.4
	c64.8,0,117.3,52.5,117.3,117.3v213.4C447.5,427,395,479.5,330.2,479.5z"/>
<path class="st1" d="M311.2,431.8H135.8c-48.9,0-88.5-39.6-88.5-88.5V167.8c0-48.9,39.6-88.5,88.5-88.5h175.5
	c48.9,0,88.5,39.6,88.5,88.5v175.5C399.8,392.1,360.1,431.8,311.2,431.8z"/>
<path class="st0" d="M211.8,339.8c-10.9,10.9-28.7,10.9-39.6,0l-64-64c-10.9-10.9-10.9-28.7,0-39.6c10.9-10.9,28.7-10.9,39.6,0
	l44.2,44.2l108.2-108.2c10.9-10.9,28.7-10.9,39.6,0c10.9,10.9,10.9,28.7,0,39.6L211.8,339.8z"/>
</svg>
