<?xml version="1.0" encoding="utf-8"?>
<!-- Generator: Adobe Illustrator 24.1.2, SVG Export Plug-In . SVG Version: 6.00 Build 0)  -->
<svg version="1.1" id="레이어_1" xmlns="http://www.w3.org/2000/svg" xmlns:xlink="http://www.w3.org/1999/xlink" x="0px"
	 y="0px" viewBox="0 0 448 512" style="enable-background:new 0 0 448 512;" xml:space="preserve">
<style type="text/css">
	.st0{fill:#7A90E2;}
	.st1{fill:#FFFFFF;}
</style>
<path class="st0" d="M330.7,480H117.3C52.5,480,0,427.5,0,362.7V149.3C0,84.5,52.5,32,117.3,32h213.4C395.5,32,448,84.5,448,149.3
	v213.4C448,427.5,395.5,480,330.7,480z"/>
<path class="st1" d="M311.7,432.3H136.3c-48.9,0-88.5-39.6-88.5-88.5V168.3c0-48.9,39.6-88.5,88.5-88.5h175.5
	c48.9,0,88.5,39.6,88.5,88.5v175.5C400.3,392.6,360.6,432.3,311.7,432.3z"/>
</svg>
